:FULLY-SPECIFIED
:FORCE-ALL-JOINTS-BE-3DOF
:DEGREES
34
root 5.99049 16.8907 -28.081 10.0326 -1.71248 -2.37279
lfemur -20.5601 2.11327 -19.6584
ltibia 34.4162 -0 0
lfoot -35.6462 3.61528 -0.0749959
ltoes 36.4714 -0 0
rfemur -16.7584 7.34518 19.6984
rtibia 30.4359 -0 0
rfoot -27.4803 -19.2875 0.00567975
rtoes 14.5749 -0 0
lowerback -5.41424 2.56331 -0.863687
upperback -1.92784 3.44615 0.88655
thorax 0.944902 1.72934 1.60328
lowerneck -9.57732 -1.68866 2.58387
upperneck -2.60929 -2.50879 0.751136
head 0.757644 -1.25612 -0.283269
lclavicle -1.83876e-015 -1.21259e-014 0
lhumerus -41.5025 -12.7202 97.031
lradius 38.6558 -0 0
lwrist 5.5316 0 0
lhand -11.0253 6.29735 1.603e-005
lfingers 7.12502 -0 0
lthumb 14.9962 35.735 0.000230417
rclavicle -1.83876e-015 -1.21259e-014 0
rhumerus -40.6723 -4.8656 -88.6829
rradius 39.3057 -0 0
rwrist 10.903 0 0
rhand -26.8914 -19.9689 -0.000627171
rfingers 7.12502 -0 0
rthumb -0.315166 -49.9492 -0.000658499
35
root 5.9865 16.8866 -28.0837 10.0735 -1.61403 -2.37946
lfemur -20.8464 2.43233 -19.63
ltibia 34.7946 -0 0
lfoot -35.3183 3.19713 -0.119376
ltoes 36.4552 -0 0
rfemur -16.7485 7.27223 19.7453
rtibia 30.357 -0 0
rfoot -27.4488 -19.3795 0.00765212
rtoes 14.0116 -0 0
lowerback -5.42304 2.54218 -0.721046
upperback -1.90433 3.4102 0.82159
thorax 0.988256 1.71091 1.45743
lowerneck -9.58043 -1.6889 2.57626
upperneck -2.6921 -2.50763 0.815265
head 0.733065 -1.25518 -0.261288
lclavicle -1.83876e-015 -1.21259e-014 0
lhumerus -41.4626 -12.7796 96.9461
lradius 38.8194 -0 0
lwrist 5.60754 0 0
lhand -11.0542 6.16551 0.000252516
lfingers 7.12502 -0 0
lthumb 14.9684 35.6061 0.000709566
rclavicle -1.83876e-015 -1.21259e-014 0
rhumerus -40.6156 -4.73452 -88.8421
rradius 39.3421 -0 0
rwrist 10.8403 0 0
rhand -26.9036 -20.0092 -0.00211415
rfingers 7.12502 -0 0
rthumb -0.326876 -49.9901 -0.00214889
36
root 5.98252 16.8825 -28.0865 10.1176 -1.50958 -2.38746
lfemur -21.1642 2.79772 -19.6068
ltibia 35.2238 -0 0
lfoot -34.9641 2.72505 -0.166619
ltoes 36.4565 -0 0
rfemur -16.747 7.17643 19.7973
rtibia 30.2813 -0 0
rfoot -27.4232 -19.462 0.00907879
rtoes 13.4113 -0 0
lowerback -5.4236 2.521 -0.574694
upperback -1.88002 3.374 0.756062
thorax 1.02754 1.69249 1.30847
lowerneck -9.58471 -1.68998 2.56548
upperneck -2.78174 -2.50711 0.880064
head 0.706604 -1.25463 -0.238579
lclavicle -1.83876e-015 -1.21259e-014 0
lhumerus -41.4164 -12.8437 96.8612
lradius 38.9879 -0 0
lwrist 5.67961 0 0
lhand -11.0906 6.02796 0.000570166
lfingers 7.12502 -0 0
lthumb 14.9335 35.4722 0.00134975
rclavicle -1.83876e-015 -1.21259e-014 0
rhumerus -40.5597 -4.58838 -89.0115
rradius 39.3823 -0 0
rwrist 10.7706 0 0
rhand -26.9123 -20.0655 -0.00428387
rfingers 7.12502 -0 0
rthumb -0.335277 -50.0472 -0.00431432
37
root 5.97853 16.8784 -28.0893 10.1642 -1.39941 -2.39681
lfemur -21.5109 3.20492 -19.5885
ltibia 35.6996 -0 0
lfoot -34.5857 2.20388 -0.215441
ltoes 36.473 -0 0
rfemur -16.7534 7.05875 19.8539
rtibia 30.2091 -0 0
rfoot -27.4031 -19.5349 0.0099895
rtoes 12.7766 -0 0
lowerback -5.41639 2.49983 -0.425102
upperback -1.85503 3.33769 0.690196
thorax 1.06287 1.67413 1.15692
lowerneck -9.59008 -1.69198 2.5518
upperneck -2.87755 -2.50734 0.945343
head 0.678452 -1.25453 -0.215252
lclavicle -1.83876e-015 -1.21259e-014 0
lhumerus -41.3646 -12.9117 96.7762
lradius 39.1608 -0 0
lwrist 5.74821 0 0
lhand -11.1332 5.88534 0.000919818
lfingers 7.12502 -0 0
lthumb 14.8925 35.334 0.00209393
rclavicle -1.83876e-015 -1.21259e-014 0
rhumerus -40.505 -4.42838 -89.1896
rradius 39.4265 -0 0
rwrist 10.6941 0 0
rhand -26.9173 -20.1364 -0.00705688
rfingers 7.12502 -0 0
rthumb -0.340146 -50.1189 -0.00707581
